<svg width="25" height="25" viewBox="0 0 25 25" fill="none" xmlns="http://www.w3.org/2000/svg">
<g id="briefcase">
<path id="Vector" d="M20.8332 7.2915H4.16649C3.0159 7.2915 2.08316 8.22424 2.08316 9.37484V19.7915C2.08316 20.9421 3.0159 21.8748 4.16649 21.8748H20.8332C21.9838 21.8748 22.9165 20.9421 22.9165 19.7915V9.37484C22.9165 8.22424 21.9838 7.2915 20.8332 7.2915Z" stroke="#FF862F" stroke-width="2" stroke-linecap="round" stroke-linejoin="round"/>
<path id="Vector_2" d="M16.6665 21.875V5.20833C16.6665 4.6558 16.447 4.12589 16.0563 3.73519C15.6656 3.34449 15.1357 3.125 14.5832 3.125H10.4165C9.86396 3.125 9.33406 3.34449 8.94335 3.73519C8.55265 4.12589 8.33316 4.6558 8.33316 5.20833V21.875" stroke="#FF862F" stroke-width="2" stroke-linecap="round" stroke-linejoin="round"/>
</g>
</svg>
