<svg width="37" height="27" viewBox="0 0 37 27" fill="none" xmlns="http://www.w3.org/2000/svg">
<g id="elephant 1" clip-path="url(#clip0_1_275)">
<path id="Vector" fill-rule="evenodd" clip-rule="evenodd" d="M5.43281 23.4523C10.0908 23.4523 10.9685 19.3279 10.9685 16.0257C11.5218 16.0257 15.894 16.0257 17.8882 16.0257C28.7358 16.0257 28.7386 0.570312 18.2342 0.570312C15.3771 0.570312 13.5368 2.31459 13.0441 2.92222C7.18314 2.92222 6.47076 6.00614 6.47076 11.9942C6.47076 13.1494 6.47076 16.9047 6.47076 17.4831C6.47076 18.8911 5.90888 19.8045 4.39451 19.8045C3.10157 19.8045 2.48919 18.6516 1.97263 17.0337C1.70346 17.1793 -0.186649 18.2088 -0.448906 18.3776C0.123005 19.9939 0.735394 23.4523 5.43281 23.4523ZM12.0183 9.64197C13.7928 9.64197 13.9436 12.3299 11.8927 12.3299C10.1638 12.3299 10.2088 9.64197 12.0183 9.64197ZM18.2345 17.6967C16.7347 17.6967 12.3525 17.3697 12.3525 17.3697V25.6563L16.5043 25.716L17.5422 19.7216L30.6896 19.4728L31.0359 26.045L35.8797 26.105C35.8797 26.105 36.5713 13.2324 36.5713 10.6499C36.5713 5.85987 34.4431 3.14876 29.6516 2.92222C28.4511 2.86551 26.8803 2.63997 25.8458 2.58623C30.355 8.11162 26.7672 17.6967 18.2345 17.6967ZM26.5381 21.0566L26.8838 25.9256L29.6516 25.9856L29.3056 21.0566H26.5381ZM17.8882 25.7763L20.6561 25.836L21.3477 21.0566H18.9258L17.8882 25.7763Z" fill="#FF862F"/>
</g>
<defs>
<clippath id="clip0_1_275">
<rect width="37" height="27" fill="white" transform="matrix(-1 0 0 1 37 0)"/>
</clippath>
</defs>
</svg>
