<svg width="25" height="25" viewBox="0 0 25 25" fill="none" xmlns="http://www.w3.org/2000/svg">
<g id="git-pull-request">
<path id="Vector" d="M18.75 21.875C20.4759 21.875 21.875 20.4759 21.875 18.75C21.875 17.0241 20.4759 15.625 18.75 15.625C17.0241 15.625 15.625 17.0241 15.625 18.75C15.625 20.4759 17.0241 21.875 18.75 21.875Z" stroke="#FF862F" stroke-width="2" stroke-linecap="round" stroke-linejoin="round"/>
<path id="Vector_2" d="M6.25 9.375C7.97589 9.375 9.375 7.97589 9.375 6.25C9.375 4.52411 7.97589 3.125 6.25 3.125C4.52411 3.125 3.125 4.52411 3.125 6.25C3.125 7.97589 4.52411 9.375 6.25 9.375Z" stroke="#FF862F" stroke-width="2" stroke-linecap="round" stroke-linejoin="round"/>
<path id="Vector_3" d="M13.5418 6.25H16.6668C17.2194 6.25 17.7493 6.46949 18.14 6.86019C18.5307 7.25089 18.7502 7.7808 18.7502 8.33333V15.625" stroke="#FF862F" stroke-width="2" stroke-linecap="round" stroke-linejoin="round"/>
<path id="Vector_4" d="M6.25 9.375V21.875" stroke="#FF862F" stroke-width="2" stroke-linecap="round" stroke-linejoin="round"/>
</g>
</svg>
